<mxfile modified="2024-02-07T08:20:40.913Z" host="app.diagrams.net" agent="Mozilla/5.0 (Windows NT 10.0; Win64; x64) AppleWebKit/537.36 (KHTML, like Gecko) Chrome/121.0.0.0 Safari/537.36" etag="ei22VaZRgwh922-V96R6" version="23.1.1" type="device">
  <diagram id="7gcUSTIZ7YSJ5vT40chW" name="Page-1">
    <mxGraphModel dx="1000" dy="480" grid="1" gridSize="10" guides="1" tooltips="1" connect="1" arrows="1" fold="1" page="1" pageScale="1" pageWidth="1169" pageHeight="827" math="0" shadow="0">
      <root>
        <mxCell id="0" />
        <mxCell id="1" parent="0" />
        <mxCell id="dsxIWtOCX4jfOc43en6E-4" style="edgeStyle=orthogonalEdgeStyle;rounded=0;orthogonalLoop=1;jettySize=auto;html=1;" parent="1" source="SZY12_XKgGBlkoAp8IEY-8" target="dsxIWtOCX4jfOc43en6E-3" edge="1">
          <mxGeometry relative="1" as="geometry" />
        </mxCell>
        <mxCell id="SZY12_XKgGBlkoAp8IEY-8" value="Azure Function" style="aspect=fixed;html=1;perimeter=none;align=center;shadow=0;dashed=0;image;fontSize=12;image=img/lib/mscae/Functions.svg;" parent="1" vertex="1">
          <mxGeometry x="790" y="460" width="76" height="69.92" as="geometry" />
        </mxCell>
        <mxCell id="TKjj8qYVKkQdX2pfZnuN-41" style="edgeStyle=orthogonalEdgeStyle;rounded=0;orthogonalLoop=1;jettySize=auto;html=1;entryX=0;entryY=0.5;entryDx=0;entryDy=0;" parent="1" source="TKjj8qYVKkQdX2pfZnuN-5" target="TKjj8qYVKkQdX2pfZnuN-16" edge="1">
          <mxGeometry relative="1" as="geometry" />
        </mxCell>
        <mxCell id="TKjj8qYVKkQdX2pfZnuN-5" value="Pollution IoT&lt;br style=&quot;font-size: 12px;&quot;&gt;Device&lt;br style=&quot;font-size: 12px;&quot;&gt;" style="aspect=fixed;html=1;perimeter=none;align=center;shadow=0;dashed=0;image;fontSize=12;image=img/lib/mscae/NetworkInterfaceCard.svg;" parent="1" vertex="1">
          <mxGeometry x="184.5" y="100" width="52" height="58.43" as="geometry" />
        </mxCell>
        <mxCell id="TKjj8qYVKkQdX2pfZnuN-27" style="edgeStyle=orthogonalEdgeStyle;rounded=0;orthogonalLoop=1;jettySize=auto;html=1;entryX=0;entryY=0.5;entryDx=0;entryDy=0;" parent="1" source="TKjj8qYVKkQdX2pfZnuN-14" edge="1">
          <mxGeometry relative="1" as="geometry">
            <mxPoint x="791.1500000000001" y="281.32500000000005" as="targetPoint" />
          </mxGeometry>
        </mxCell>
        <mxCell id="TKjj8qYVKkQdX2pfZnuN-14" value="Azure Stream Analytics" style="shape=image;verticalLabelPosition=bottom;labelBackgroundColor=#ffffff;verticalAlign=top;aspect=fixed;imageAspect=0;image=data:image/svg+xml,PHN2ZyB4bWxuczpkYz0iaHR0cDovL3B1cmwub3JnL2RjL2VsZW1lbnRzLzEuMS8iIHhtbG5zOmNjPSJodHRwOi8vY3JlYXRpdmVjb21tb25zLm9yZy9ucyMiIHhtbG5zOnJkZj0iaHR0cDovL3d3dy53My5vcmcvMTk5OS8wMi8yMi1yZGYtc3ludGF4LW5zIyIgeG1sbnM6c3ZnPSJodHRwOi8vd3d3LnczLm9yZy8yMDAwL3N2ZyIgeG1sbnM9Imh0dHA6Ly93d3cudzMub3JnLzIwMDAvc3ZnIiB4bWxuczpzb2RpcG9kaT0iaHR0cDovL3NvZGlwb2RpLnNvdXJjZWZvcmdlLm5ldC9EVEQvc29kaXBvZGktMC5kdGQiIHhtbG5zOmlua3NjYXBlPSJodHRwOi8vd3d3Lmlua3NjYXBlLm9yZy9uYW1lc3BhY2VzL2lua3NjYXBlIiB2ZXJzaW9uPSIxLjEiIGlkPSJzdmc5ODUyMCIgaW5rc2NhcGU6dmVyc2lvbj0iMC45Mi4zICgyNDA1NTQ2LCAyMDE4LTAzLTExKSIgc29kaXBvZGk6ZG9jbmFtZT0ic3RyZWFtX2FuYWx5dGljcy5zdmciIHg9IjBweCIgeT0iMHB4IiB2aWV3Qm94PSIwIDAgMTIxLjYxIDk0LjM3MDA2OSIgeG1sOnNwYWNlPSJwcmVzZXJ2ZSIgd2lkdGg9IjEyMS42MSIgaGVpZ2h0PSI5NC4zNzAwNzEiPjxtZXRhZGF0YSBpZD0ibWV0YWRhdGEzMDk4Ij48cmRmOlJERj48Y2M6V29yayByZGY6YWJvdXQ9IiI+PGRjOmZvcm1hdD5pbWFnZS9zdmcreG1sPC9kYzpmb3JtYXQ+PGRjOnR5cGUgcmRmOnJlc291cmNlPSJodHRwOi8vcHVybC5vcmcvZGMvZGNtaXR5cGUvU3RpbGxJbWFnZSIvPjxkYzp0aXRsZS8+PC9jYzpXb3JrPjwvcmRmOlJERj48L21ldGFkYXRhPjxkZWZzIGlkPSJkZWZzMzA5NiI+JiN4YTsJJiN4YTsmI3hhOwkmI3hhOyYjeGE7CSYjeGE7JiN4YTsJJiN4YTsmI3hhOwkmI3hhOwkmI3hhOwkmI3hhOyYjeGE7CSYjeGE7CSYjeGE7CSYjeGE7JiN4YTsJCSYjeGE7CSYjeGE7CQkmI3hhOwkmI3hhOwkJJiN4YTsJJiN4YTsJCSYjeGE7CSYjeGE7CQkmI3hhOwkmI3hhOwkJJiN4YTsJJiN4YTsJCQkmI3hhOwkJJiN4YTsJCQkmI3hhOwkJPC9kZWZzPiYjeGE7PGZpbHRlciBpZD0iZmlsdGVyXzIiPiYjeGE7CTxmZUdhdXNzaWFuQmx1ciBpZD0iZmVHYXVzc2lhbkJsdXI5ODQ1OCIgc3RkRGV2aWF0aW9uPSIyIi8+JiN4YTs8L2ZpbHRlcj4mI3hhOzxzb2RpcG9kaTpuYW1lZHZpZXcgYm9yZGVyY29sb3I9IiM2NjY2NjYiIGJvcmRlcm9wYWNpdHk9IjEiIGZpdC1tYXJnaW4tYm90dG9tPSIwIiBmaXQtbWFyZ2luLWxlZnQ9IjAiIGZpdC1tYXJnaW4tcmlnaHQ9IjAiIGZpdC1tYXJnaW4tdG9wPSIwIiBncmlkdG9sZXJhbmNlPSIxMCIgZ3VpZGV0b2xlcmFuY2U9IjEwIiBpZD0ibmFtZWR2aWV3OTg1MjIiIGlua3NjYXBlOmN1cnJlbnQtbGF5ZXI9InN2Zzk4NTIwIiBpbmtzY2FwZTpjeD0iOC40ODMzMDc2IiBpbmtzY2FwZTpjeT0iMzkuNzI2NTgiIGlua3NjYXBlOnBhZ2VvcGFjaXR5PSIwIiBpbmtzY2FwZTpwYWdlc2hhZG93PSIyIiBpbmtzY2FwZTp3aW5kb3ctaGVpZ2h0PSIxMDE3IiBpbmtzY2FwZTp3aW5kb3ctbWF4aW1pemVkPSIxIiBpbmtzY2FwZTp3aW5kb3ctd2lkdGg9IjE5MjAiIGlua3NjYXBlOndpbmRvdy14PSItOCIgaW5rc2NhcGU6d2luZG93LXk9Ii04IiBpbmtzY2FwZTp6b29tPSIzLjg2ODgxNDEiIG9iamVjdHRvbGVyYW5jZT0iMTAiIHBhZ2Vjb2xvcj0iI2ZmZmZmZiIgc2hvd2dyaWQ9ImZhbHNlIj4mI3hhOwk8L3NvZGlwb2RpOm5hbWVkdmlldz4mI3hhOyYjeGE7PHBhdGggaWQ9InBhdGg5ODQ3MSIgaW5rc2NhcGU6Y29ubmVjdG9yLWN1cnZhdHVyZT0iMCIgc3R5bGU9ImZpbGw6IzdhN2E3YSIgZD0ibSAxMDUuMzEsNjMuOTYwMDc1IDIuOTIsLTcuNTMgMTMuMzgsLTQuNjMgdiAtMTAuNyBsIC0xLjQ2LC0wLjQ4IC0xMS45MiwtMy40MSAtMi45MiwtNy41NCA2LjA4LC0xMi40IC03LjU0LC03LjU0IC0xLjQ2LDAuNzMgLTEwLjk0LDUuNTkgLTcuNzgsLTMuMTYgLTQuODcsLTEyLjg5IEggNjcuODYgbCAtMC40OSwxLjQ2IC0zLjY1LDExLjQzIC03LjU0LDIuOTIgLTEyLjg5LC01LjYgLTcuNzgsNy41NCAwLjczLDEuNDYgMy40LDYuMzMgYyA2LjA4LC0zLjQxIDEyLjQxLC00Ljg3IDE5LjIyLC00Ljg3IDkuNDgsMC40OSAxOC4yNCwzLjg5IDI1LjA1LDEwLjIyIDEuNDYsMS4yMSAyLjkyLDIuMTkgNC42MiwzLjg5IDAuNzMsMC43MyAxLjQ2LDEuOTUgMS45NSwyLjY3IDQuNjIsOC4wMyAyLjY3LDE4LjI1IC00Ljg3LDI0LjMzIC01LjU5LDQuNjIgLTEzLjM3LDUuMzUgLTE5LjIxLDIuNjcgLTAuNzMsLTAuNDkgLTEuMjIsLTAuNDkgLTEuNDYsLTAuNzMgLTEuNDYsLTAuNzMgLTIuOTIsLTEuOTQgLTQuMTQsLTIuOTIgLTAuNDgsMCAtMC43MywtMC40OCAtMS40NiwtMC40OCAtMS40NSwwIC0yLjkxLDAuNzMgLTQuMTMsMS45NCBsIC0wLjQ5LDAuNDkgYyAtNC42Miw0LjYyIC05LjcyLDguMDIgLTE1LjU2LDkuNzMgbCAtMi4xOSw0LjYyIDcuMyw3LjI5IDAuNDgsMC40OSAxLjQ2LC0wLjczIDEwLjk1LC01LjU5IDcuNTQsMi45MiA0LjEzLDEyLjg5IGggMTAuOTQgbCAwLjQ5LC0xLjQ2IDMuODksLTExLjQzIDcuNTQsLTIuOTIgMTIuODksNS41OSA3LjMsLTguMDIgLTAuNzMsLTEuNDYgeiIvPiYjeGE7JiN4YTs8cGF0aCBpZD0icGF0aDk4NDc5IiBpbmtzY2FwZTpjb25uZWN0b3ItY3VydmF0dXJlPSIwIiBzdHlsZT0iZmlsbDojNDhjOGVmIiBkPSJtIDQwLjEzLDQ0Ljk5MDA3NSBjIC04LjI3LDguNzYgLTIxLjY0LDguNzYgLTI5LjQzLC0wLjQ4IC0wLjczLC0xLjIyIC0yLjY3LC0xLjIyIC0zLjQsMCAtMC40OSwwLjQ4IC0wLjczLDEuMjEgLTAuNzMsMS45NCAwLDAuNzMgMC40OSwxLjQ2IDAuNzMsMS45NSA5LjczLDEwLjk0IDI2LjAyLDExLjE5IDM2LjQ4LDAuNDkgOC4yNywtOC4yNyAyMS4xNiwtOC41MiAyOS4xOSwwLjcyIDEuMjEsMS4yMiAyLjY3LDEuMjIgMy40LDAgMC40OSwtMC40OCAwLjczLC0xLjIxIDAuNzMsLTEuOTQgMCwtMC43MyAtMC40OCwtMS40NiAtMC43MywtMS45NSAtOS43MywtMTAuOTQgLTI2LjAyLC0xMS4xOCAtMzYuMjQsLTAuNzMgeiIvPiYjeGE7JiN4YTs8cGF0aCBpZD0icGF0aDk4NDg3IiBpbmtzY2FwZTpjb25uZWN0b3ItY3VydmF0dXJlPSIwIiBzdHlsZT0iZmlsbDojMDBhYmVjIiBkPSJtIDU4LjM3LDQ5LjYyMDA3NSBjIC00LjYyLDAgLTguMjcsMS40NiAtMTEuNjcsNC44NiBsIC0wLjQ5LDAuNDkgLTAuNDksMC40OSBjIC01LjU5LDYuMDggLTEzLjM3LDkgLTIxLjE2LDguNzUgLTguMDIsMCAtMTUuMDcsLTMuODkgLTIwLjkxLC05LjczIC0xLjIyLC0xLjIxIC0yLjY4LC0xLjIxIC0zLjQxLDAgLTAuMjQsMCAtMC4yNCwwLjQ5IC0wLjI0LDEuMjIgMCwwLjczIDAuNzMsMS45NSAxLjIyLDIuMTkgNi4zMiw3LjMgMTUuMDgsMTEuNDMgMjQuMzIsMTEuNDMgOSwwLjQ5IDE3Ljc1LC0zLjQgMjQuNTYsLTEwLjcgbCAwLjQ5LC0wLjQ5IDAuNDgsLTAuNDggYyAyLjE5LC0yLjE5IDQuODcsLTMuNDEgOC4wMywtMy40MSAyLjkyLDAgNS41OSwxLjQ2IDguMDMsMy44OSAxLjIxLDEuMjIgMi42NywxLjIyIDMuNCwwIDAuNDksLTAuNDggMC43MywtMS4yMSAwLjczLC0xLjk0IDAsLTAuNzMgLTAuNDksLTEuNDYgLTAuNzMsLTEuOTUgLTMuNCwtMi42NyAtNy41NCwtNC42MiAtMTIuMTYsLTQuNjIgeiIvPiYjeGE7JiN4YTs8cGF0aCBpZD0icGF0aDk4NDk1IiBpbmtzY2FwZTpjb25uZWN0b3ItY3VydmF0dXJlPSIwIiBzdHlsZT0iZmlsbDojODRkNmVmIiBkPSJtIDM3Ljk0LDM5LjY0MDA3NSBjIDUuNTksLTYuMDggMTMuMzgsLTkgMjEuMTYsLTkgNy43OCwwIDE1LjA4LDMuODkgMjAuNDMsOS43MyAxLjIyLDEuMjIgMi42OCwxLjIyIDMuNDEsMCAwLjQ4LC0wLjQ5IDAuNzIsLTEuMjIgMC43MiwtMS45NSAwLC0wLjczIC0wLjQ4LC0xLjQ2IC0wLjcyLC0xLjk0IC02LjMzLC03LjMgLTE1LjA4LC0xMS40MyAtMjQuMzMsLTExLjQzIC05LjI0LDAgLTE3Ljc1LDMuNCAtMjQuNTYsMTAuNyBsIC0wLjQ5LDAuNDggLTAuNDgsMC40OSBjIC0yLjE5LDIuMTkgLTQuODcsMy40MSAtOC4wMywzLjQxIC0zLjE2LDAgLTUuNTksLTEuNDYgLTguMDMsLTMuOSAtMS4yMSwtMS4yMSAtMi42NywtMS4yMSAtMy40LDAgLTAuNDksMC40OSAtMC43MywxLjIyIC0wLjczLDEuOTUgMCwwLjczIDAuNDksMS40NiAwLjczLDEuOTUgMi45MiwzLjQgNy4zLDUuMzUgMTEuNDMsNS4zNSA0LjYyLDAgOC4yNywtMS40NiAxMS42NywtNC44NyBsIDAuNDksLTAuNDggeiIvPiYjeGE7JiN4YTs8cGF0aCBkPSJtIDM5Ljg4OTY2LDI1Ljc4IGMgNi4wOCwtMy40IDEyLjQsLTQuODYgMTkuMjEsLTQuODYgOS40OSwwLjQ4IDE4LjI0LDMuODkgMjUuMDUsMTAuMjEgMS4yMiwwLjk3IDIuMTksMS43IDMuNDEsMi42OCBsIDIwLjE4LC0yMC4xOSAtNC4xMywtNC4xMyAtMS40NiwwLjcyIC0xMC45NCw1LjYgLTcuNTQsLTIuOTIgLTQuODcsLTEyLjg5IGggLTEwLjk0IGwgLTAuNDksMS40NiAtMy42NSwxMS40MyAtNy41NCwyLjkyIC0xMi44OSwtNS42IC03Ljc4LDcuNTQgMC43MywxLjQ2IHoiIHN0eWxlPSJmaWxsOiNmMWYxZjE7ZmlsbC1vcGFjaXR5OjAuMiIgaW5rc2NhcGU6Y29ubmVjdG9yLWN1cnZhdHVyZT0iMCIgaWQ9InBhdGg5ODUxMyIvPiYjeGE7PC9zdmc+;" parent="1" vertex="1">
          <mxGeometry x="585" y="245.87999999999997" width="92" height="70.9" as="geometry" />
        </mxCell>
        <mxCell id="TKjj8qYVKkQdX2pfZnuN-40" style="edgeStyle=orthogonalEdgeStyle;rounded=0;orthogonalLoop=1;jettySize=auto;html=1;entryX=0;entryY=0.5;entryDx=0;entryDy=0;" parent="1" source="TKjj8qYVKkQdX2pfZnuN-16" target="TKjj8qYVKkQdX2pfZnuN-14" edge="1">
          <mxGeometry relative="1" as="geometry" />
        </mxCell>
        <mxCell id="TKjj8qYVKkQdX2pfZnuN-16" value="Azure IoT&#xa;Hub" style="shape=image;verticalLabelPosition=bottom;labelBackgroundColor=#ffffff;verticalAlign=top;aspect=fixed;imageAspect=0;image=data:image/svg+xml,PHN2ZyB4bWxuczpjYz0iaHR0cDovL2NyZWF0aXZlY29tbW9ucy5vcmcvbnMjIiB4bWxuczpkYz0iaHR0cDovL3B1cmwub3JnL2RjL2VsZW1lbnRzLzEuMS8iIHhtbG5zOmlua3NjYXBlPSJodHRwOi8vd3d3Lmlua3NjYXBlLm9yZy9uYW1lc3BhY2VzL2lua3NjYXBlIiB4bWxuczpyZGY9Imh0dHA6Ly93d3cudzMub3JnLzE5OTkvMDIvMjItcmRmLXN5bnRheC1ucyMiIHhtbG5zOnNvZGlwb2RpPSJodHRwOi8vc29kaXBvZGkuc291cmNlZm9yZ2UubmV0L0RURC9zb2RpcG9kaS0wLmR0ZCIgeG1sbnM6c3ZnPSJodHRwOi8vd3d3LnczLm9yZy8yMDAwL3N2ZyIgeG1sbnM9Imh0dHA6Ly93d3cudzMub3JnLzIwMDAvc3ZnIiB4bWxuczp4bGluaz0iaHR0cDovL3d3dy53My5vcmcvMTk5OS94bGluayIgdmVyc2lvbj0iMS4xIiBpZD0ic3ZnNTg3OTUiIGlua3NjYXBlOnZlcnNpb249IjAuOTIuMyAoMjQwNTU0NiwgMjAxOC0wMy0xMSkiIHNvZGlwb2RpOmRvY25hbWU9ImF6dXJlX2lvdF9odWIuc3ZnIiB4PSIwcHgiIHk9IjBweCIgdmlld0JveD0iMCAwIDM3LjU2IDM3LjQ1IiBzdHlsZT0iZW5hYmxlLWJhY2tncm91bmQ6bmV3IDAgMCAzNy41NiAzNy40NTsiIHhtbDpzcGFjZT0icHJlc2VydmUiPiYjeGE7PHNvZGlwb2RpOm5hbWVkdmlldyBib3JkZXJjb2xvcj0iIzY2NjY2NiIgYm9yZGVyb3BhY2l0eT0iMSIgZml0LW1hcmdpbi1ib3R0b209IjAiIGZpdC1tYXJnaW4tbGVmdD0iMCIgZml0LW1hcmdpbi1yaWdodD0iMCIgZml0LW1hcmdpbi10b3A9IjAiIGdyaWR0b2xlcmFuY2U9IjEwIiBndWlkZXRvbGVyYW5jZT0iMTAiIGlkPSJuYW1lZHZpZXc1ODc5NyIgaW5rc2NhcGU6Y3VycmVudC1sYXllcj0ic3ZnNTg3OTUiIGlua3NjYXBlOmN4PSIyMC4xMDI5NTciIGlua3NjYXBlOmN5PSIyMC4xNjUyNzkiIGlua3NjYXBlOnBhZ2VvcGFjaXR5PSIwIiBpbmtzY2FwZTpwYWdlc2hhZG93PSIyIiBpbmtzY2FwZTp3aW5kb3ctaGVpZ2h0PSIxMDE3IiBpbmtzY2FwZTp3aW5kb3ctbWF4aW1pemVkPSIxIiBpbmtzY2FwZTp3aW5kb3ctd2lkdGg9IjE5MjAiIGlua3NjYXBlOndpbmRvdy14PSItOCIgaW5rc2NhcGU6d2luZG93LXk9Ii04IiBpbmtzY2FwZTp6b29tPSIxMS44MDQ2MzIiIG9iamVjdHRvbGVyYW5jZT0iMTAiIHBhZ2Vjb2xvcj0iI2ZmZmZmZiIgc2hvd2dyaWQ9ImZhbHNlIj4mI3hhOwk8L3NvZGlwb2RpOm5hbWVkdmlldz4mI3hhOzxnIGlkPSJnNTg3OTMiIHRyYW5zZm9ybT0idHJhbnNsYXRlKC0wLjc1LC0wLjc0NTUpIj4mI3hhOwk8dGl0bGUgaWQ9InRpdGxlNTg3MzMiPlBhZ2UtMTwvdGl0bGU+JiN4YTsJPGcgaWQ9Imdyb3VwNTI1Ny0xIiB0cmFuc2Zvcm09InRyYW5zbGF0ZSgwLjc1LC0wLjc1KSI+JiN4YTsJCTx0aXRsZSBpZD0idGl0bGU1ODczNSI+QXp1cmUgSW9UIEh1YjwvdGl0bGU+JiN4YTsJCTxnIGlkPSJzaGFwZTUyNTgtMiIgdHJhbnNmb3JtPSJyb3RhdGUoLTEyNS4xMDYsNi45ODcyMTQ3LDIyLjIzNzQ2NykiPiYjeGE7CQkJPHRpdGxlIGlkPSJ0aXRsZTU4NzM3Ij5TaGVldC41MjU4PC90aXRsZT4mI3hhOwkJCSYjeGE7CQkJCTxyZWN0IGlkPSJyZWN0NTg3MzkiIHg9IjYuMjgiIHk9IjMwLjc5IiB0cmFuc2Zvcm09Im1hdHJpeCgtMi4yMTA5ODBlLTA2IC0xIDEgLTIuMjEwOTgwZS0wNiAtMzAuNzkxMSA0NS4yMzE2KSIgc3R5bGU9ImZpbGw6I0I4RDQzMjsiIHdpZHRoPSIxLjg4IiBoZWlnaHQ9IjE0LjQ0Ii8+JiN4YTsJCTwvZz4mI3hhOwkJPGcgaWQ9InNoYXBlNTI1OS00IiB0cmFuc2Zvcm09InJvdGF0ZSgtMTE5Ljc4OCwxMy44MDkwMDMsMjUuNzU5MDc4KSI+JiN4YTsJCQk8dGl0bGUgaWQ9InRpdGxlNTg3NDIiPlNoZWV0LjUyNTk8L3RpdGxlPiYjeGE7CQkJJiN4YTsJCQkJPHJlY3QgaWQ9InJlY3Q1ODc0NCIgeD0iNi40NiIgeT0iMzAuNjEiIHRyYW5zZm9ybT0ibWF0cml4KC0yLjQ4NTYzM2UtMDYgLTEgMSAtMi40ODU2MzNlLTA2IC0zMC42MTQ4IDQ1LjQwNzcpIiBzdHlsZT0iZmlsbDojQjhENDMyOyIgd2lkdGg9IjEuODgiIGhlaWdodD0iMTQuNzkiLz4mI3hhOwkJPC9nPiYjeGE7CQk8ZyBpZD0ic2hhcGU1MjYwLTYiIHRyYW5zZm9ybT0icm90YXRlKC05NC43NDYyLDMuMjEzMDcxNiwxOC4zOTUwMDUpIj4mI3hhOwkJCTx0aXRsZSBpZD0idGl0bGU1ODc0NyI+U2hlZXQuNTI2MDwvdGl0bGU+JiN4YTsJCQkmI3hhOwkJCQk8cmVjdCBpZD0icmVjdDU4NzQ5IiB4PSItOC4wNCIgeT0iMjkuMDMiIHRyYW5zZm9ybT0ibWF0cml4KC0yLjY1OTE4N2UtMDYgLTEgMSAtMi42NTkxODdlLTA2IC0yOS4wMjk5IDMwLjkwODUpIiBzdHlsZT0iZmlsbDojQjhENDMyOyIgd2lkdGg9IjE3Ljk2IiBoZWlnaHQ9IjEuODgiLz4mI3hhOwkJPC9nPiYjeGE7CQk8ZyBpZD0ic2hhcGU1MjYxLTgiIHRyYW5zZm9ybT0icm90YXRlKC0xNDguOTI4LDkuNjUwNDI3MywyNS43NjM0NjQpIj4mI3hhOwkJCTx0aXRsZSBpZD0idGl0bGU1ODc1MiI+U2hlZXQuNTI2MTwvdGl0bGU+JiN4YTsJCQkmI3hhOwkJCQk8cmVjdCBpZD0icmVjdDU4NzU0IiB4PSItNS4xNyIgeT0iMzEuOTEiIHRyYW5zZm9ybT0ibWF0cml4KC0yLjgwNTE0M2UtMDYgLTEgMSAtMi44MDUxNDNlLTA2IC0zMS45MDY3IDMzLjc4NTEpIiBzdHlsZT0iZmlsbDojQjhENDMyOyIgd2lkdGg9IjEyLjIxIiBoZWlnaHQ9IjEuODgiLz4mI3hhOwkJPC9nPiYjeGE7CQk8ZyBpZD0ic2hhcGU1MjYyLTEwIiB0cmFuc2Zvcm09InRyYW5zbGF0ZSgyNi44ODQ1LC0yNi44ODQ1KSI+JiN4YTsJCQk8dGl0bGUgaWQ9InRpdGxlNTg3NTciPlNoZWV0LjUyNjI8L3RpdGxlPiYjeGE7CQkJPHBhdGggaWQ9InBhdGg1ODc1OSIgaW5rc2NhcGU6Y29ubmVjdG9yLWN1cnZhdHVyZT0iMCIgc3R5bGU9ImZpbGw6IzAwNzJDNjsiIGQ9Ik0xMC4xLDI4LjM4SDAuNTlDMC4yMywyOC4zOCwwLDI4LjYyLDAsMjkuMDkgICAgIHYzLjRjMCwwLjM2LDAuMjMsMC41OSwwLjU5LDAuNTloNS40djUuMjhjMCwwLjM2LDAuMjMsMC41OSwwLjcsMC41OWgzLjQxYzAuMzUsMCwwLjU4LTAuMjMsMC41OC0wLjU5di05LjM5ICAgICBDMTAuNjgsMjguNjIsMTAuNDUsMjguMzgsMTAuMSwyOC4zOHoiLz4mI3hhOwkJPC9nPiYjeGE7CQk8ZyBpZD0ic2hhcGU1MjYzLTEyIj4mI3hhOwkJCTx0aXRsZSBpZD0idGl0bGU1ODc2MiI+U2hlZXQuNTI2MzwvdGl0bGU+JiN4YTsJCQk8cGF0aCBpZD0icGF0aDU4NzY0IiBpbmtzY2FwZTpjb25uZWN0b3ItY3VydmF0dXJlPSIwIiBzdHlsZT0iZmlsbDojMDA3MkM2OyIgZD0iTTAuNTksMzguOTVoOS41MWMwLjM1LDAsMC41OC0wLjIzLDAuNTgtMC43ICAgICB2LTMuNDFjMC0wLjM1LTAuMjMtMC41OS0wLjU4LTAuNTlINC43di01LjI4YzAtMC4zNS0wLjI0LTAuNTktMC43MS0wLjU5aC0zLjRDMC4yMywyOC4zOCwwLDI4LjYyLDAsMjguOTd2OS4zOSAgICAgQzAsMzguNzIsMC4yMywzOC45NSwwLjU5LDM4Ljk1eiIvPiYjeGE7CQk8L2c+JiN4YTsJCTxnIGlkPSJzaGFwZTUyNjQtMTQiIHRyYW5zZm9ybT0idHJhbnNsYXRlKDEyLjA5MjIsLTI4LjA1ODUpIj4mI3hhOwkJCTx0aXRsZSBpZD0idGl0bGU1ODc2NyI+U2hlZXQuNTI2NDwvdGl0bGU+JiN4YTsJCQk8Y2lyY2xlIGlkPSJlbGxpcHNlNTg3NjkiIHN0eWxlPSJmaWxsOiMwMDZERDY7IiBjeD0iMy42NCIgY3k9IjM1LjMxIiByPSIzLjY0Ii8+JiN4YTsJCTwvZz4mI3hhOwkJPGcgaWQ9InNoYXBlNTI2NS0xNiIgdHJhbnNmb3JtPSJ0cmFuc2xhdGUoMTkuNzIzMSwtMTUuNjE0MikiPiYjeGE7CQkJPHRpdGxlIGlkPSJ0aXRsZTU4NzcyIj5TaGVldC41MjY1PC90aXRsZT4mI3hhOwkJCTxjaXJjbGUgaWQ9ImVsbGlwc2U1ODc3NCIgc3R5bGU9ImZpbGw6IzAwNkRENjsiIGN4PSI0LjM0IiBjeT0iMzQuNjEiIHI9IjQuMzQiLz4mI3hhOwkJPC9nPiYjeGE7CQk8ZyBpZD0ic2hhcGU1MjY2LTE4IiB0cmFuc2Zvcm09InRyYW5zbGF0ZSgyNy45NDExLC0zLjYzOTM5KSI+JiN4YTsJCQk8dGl0bGUgaWQ9InRpdGxlNTg3NzciPlNoZWV0LjUyNjY8L3RpdGxlPiYjeGE7CQkJPGNpcmNsZSBpZD0iZWxsaXBzZTU4Nzc5IiBzdHlsZT0iZmlsbDojMDA2REQ2OyIgY3g9IjMuNCIgY3k9IjM1LjU1IiByPSIzLjQiLz4mI3hhOwkJPC9nPiYjeGE7CQk8ZyBpZD0ic2hhcGU1MjY3LTIwIiB0cmFuc2Zvcm09InRyYW5zbGF0ZSgxNC45MDk4LC02LjQ1Njk4KSI+JiN4YTsJCQk8dGl0bGUgaWQ9InRpdGxlNTg3ODIiPlNoZWV0LjUyNjc8L3RpdGxlPiYjeGE7CQkJPGNpcmNsZSBpZD0iZWxsaXBzZTU4Nzg0IiBzdHlsZT0iZmlsbDojMDA2REQ2OyIgY3g9IjIuOTQiIGN5PSIzNi4wMiIgcj0iMi45MyIvPiYjeGE7CQk8L2c+JiN4YTsJCTxnIGlkPSJzaGFwZTUyNjgtMjIiIHRyYW5zZm9ybT0idHJhbnNsYXRlKDMuMDUyMzksLTE1LjM3OTQpIj4mI3hhOwkJCTx0aXRsZSBpZD0idGl0bGU1ODc4NyI+U2hlZXQuNTI2ODwvdGl0bGU+JiN4YTsJCQk8Y2lyY2xlIGlkPSJlbGxpcHNlNTg3ODkiIHN0eWxlPSJmaWxsOiMwMDZERDY7IiBjeD0iMi45NCIgY3k9IjM2LjAyIiByPSIyLjkzIi8+JiN4YTsJCTwvZz4mI3hhOwk8L2c+JiN4YTs8L2c+JiN4YTs8L3N2Zz4=;" parent="1" vertex="1">
          <mxGeometry x="410" y="248.76999999999998" width="67" height="65.13" as="geometry" />
        </mxCell>
        <mxCell id="TKjj8qYVKkQdX2pfZnuN-37" style="edgeStyle=orthogonalEdgeStyle;rounded=0;orthogonalLoop=1;jettySize=auto;html=1;entryX=0;entryY=0.5;entryDx=0;entryDy=0;" parent="1" source="TKjj8qYVKkQdX2pfZnuN-17" target="TKjj8qYVKkQdX2pfZnuN-16" edge="1">
          <mxGeometry relative="1" as="geometry" />
        </mxCell>
        <mxCell id="TKjj8qYVKkQdX2pfZnuN-17" value="Pollution IoT&lt;br style=&quot;font-size: 12px;&quot;&gt;Device&lt;br style=&quot;font-size: 12px;&quot;&gt;" style="aspect=fixed;html=1;perimeter=none;align=center;shadow=0;dashed=0;image;fontSize=12;image=img/lib/mscae/NetworkInterfaceCard.svg;" parent="1" vertex="1">
          <mxGeometry x="184.5" y="252.11999999999998" width="52" height="58.43" as="geometry" />
        </mxCell>
        <mxCell id="TKjj8qYVKkQdX2pfZnuN-43" style="edgeStyle=orthogonalEdgeStyle;rounded=0;orthogonalLoop=1;jettySize=auto;html=1;entryX=0;entryY=0.5;entryDx=0;entryDy=0;" parent="1" source="TKjj8qYVKkQdX2pfZnuN-18" target="TKjj8qYVKkQdX2pfZnuN-16" edge="1">
          <mxGeometry relative="1" as="geometry" />
        </mxCell>
        <mxCell id="TKjj8qYVKkQdX2pfZnuN-18" value="Pollution IoT&lt;br style=&quot;font-size: 12px;&quot;&gt;Device&lt;br style=&quot;font-size: 12px;&quot;&gt;" style="aspect=fixed;html=1;perimeter=none;align=center;shadow=0;dashed=0;image;fontSize=12;image=img/lib/mscae/NetworkInterfaceCard.svg;" parent="1" vertex="1">
          <mxGeometry x="184.5" y="401.57" width="52" height="58.43" as="geometry" />
        </mxCell>
        <mxCell id="TKjj8qYVKkQdX2pfZnuN-32" style="edgeStyle=orthogonalEdgeStyle;rounded=0;orthogonalLoop=1;jettySize=auto;html=1;" parent="1" target="SZY12_XKgGBlkoAp8IEY-8" edge="1">
          <mxGeometry relative="1" as="geometry">
            <mxPoint x="1010" y="495" as="sourcePoint" />
          </mxGeometry>
        </mxCell>
        <mxCell id="JBx1rKVw5oy3LH-7-36Q-1" value="Azure Device Twins" style="image;sketch=0;aspect=fixed;html=1;points=[];align=center;fontSize=12;image=img/lib/mscae/Azure_Digital_Twins.svg;" parent="1" vertex="1">
          <mxGeometry x="410" y="76.86" width="64.41" height="71.57" as="geometry" />
        </mxCell>
        <mxCell id="JBx1rKVw5oy3LH-7-36Q-2" style="edgeStyle=orthogonalEdgeStyle;rounded=0;orthogonalLoop=1;jettySize=auto;html=1;entryX=0.52;entryY=0.838;entryDx=0;entryDy=0;entryPerimeter=0;" parent="1" source="TKjj8qYVKkQdX2pfZnuN-16" target="JBx1rKVw5oy3LH-7-36Q-1" edge="1">
          <mxGeometry relative="1" as="geometry" />
        </mxCell>
        <mxCell id="86mRzT3pL-NrQMXcVJue-1" value="" style="image;aspect=fixed;html=1;points=[];align=center;fontSize=12;image=img/lib/azure2/preview/Static_Apps.svg;" parent="1" vertex="1">
          <mxGeometry x="1010" y="459.92" width="87.5" height="70" as="geometry" />
        </mxCell>
        <mxCell id="86mRzT3pL-NrQMXcVJue-2" value="Azure Static Web Apps" style="text;html=1;align=center;verticalAlign=middle;resizable=0;points=[];autosize=1;strokeColor=none;fillColor=none;" parent="1" vertex="1">
          <mxGeometry x="978.75" y="529.92" width="150" height="30" as="geometry" />
        </mxCell>
        <mxCell id="dsxIWtOCX4jfOc43en6E-6" style="edgeStyle=orthogonalEdgeStyle;rounded=0;orthogonalLoop=1;jettySize=auto;html=1;" parent="1" source="dsxIWtOCX4jfOc43en6E-1" target="dsxIWtOCX4jfOc43en6E-5" edge="1">
          <mxGeometry relative="1" as="geometry">
            <Array as="points">
              <mxPoint x="830" y="190" />
              <mxPoint x="918" y="190" />
            </Array>
          </mxGeometry>
        </mxCell>
        <mxCell id="dsxIWtOCX4jfOc43en6E-7" style="edgeStyle=orthogonalEdgeStyle;rounded=0;orthogonalLoop=1;jettySize=auto;html=1;" parent="1" source="dsxIWtOCX4jfOc43en6E-1" target="dsxIWtOCX4jfOc43en6E-2" edge="1">
          <mxGeometry relative="1" as="geometry">
            <Array as="points">
              <mxPoint x="830" y="190" />
              <mxPoint x="746" y="190" />
            </Array>
          </mxGeometry>
        </mxCell>
        <mxCell id="dsxIWtOCX4jfOc43en6E-1" value="" style="image;sketch=0;aspect=fixed;html=1;points=[];align=center;fontSize=12;image=img/lib/mscae/SQL_Servers.svg;" parent="1" vertex="1">
          <mxGeometry x="800" y="230" width="80.55" height="80.55" as="geometry" />
        </mxCell>
        <mxCell id="dsxIWtOCX4jfOc43en6E-2" value="Azure SQL Database " style="shape=image;verticalLabelPosition=bottom;labelBackgroundColor=#ffffff;verticalAlign=top;aspect=fixed;imageAspect=0;image=data:image/svg+xml,PHN2ZyB4bWxuczpjYz0iaHR0cDovL2NyZWF0aXZlY29tbW9ucy5vcmcvbnMjIiB4bWxuczpkYz0iaHR0cDovL3B1cmwub3JnL2RjL2VsZW1lbnRzLzEuMS8iIHhtbG5zOmlua3NjYXBlPSJodHRwOi8vd3d3Lmlua3NjYXBlLm9yZy9uYW1lc3BhY2VzL2lua3NjYXBlIiB4bWxuczpyZGY9Imh0dHA6Ly93d3cudzMub3JnLzE5OTkvMDIvMjItcmRmLXN5bnRheC1ucyMiIHhtbG5zOnNvZGlwb2RpPSJodHRwOi8vc29kaXBvZGkuc291cmNlZm9yZ2UubmV0L0RURC9zb2RpcG9kaS0wLmR0ZCIgeG1sbnM6c3ZnPSJodHRwOi8vd3d3LnczLm9yZy8yMDAwL3N2ZyIgeG1sbnM9Imh0dHA6Ly93d3cudzMub3JnLzIwMDAvc3ZnIiB4bWxuczp4bGluaz0iaHR0cDovL3d3dy53My5vcmcvMTk5OS94bGluayIgdmVyc2lvbj0iMS4xIiBpZD0ic3ZnOTY3NTQiIGlua3NjYXBlOnZlcnNpb249IjAuOTIuMyAoMjQwNTU0NiwgMjAxOC0wMy0xMSkiIHNvZGlwb2RpOmRvY25hbWU9ImF6dXJlX3NxbF9kYXRhYmFzZS5zdmciIHg9IjBweCIgeT0iMHB4IiB2aWV3Qm94PSIwIDAgMzEuMSAzMi42NCIgc3R5bGU9ImVuYWJsZS1iYWNrZ3JvdW5kOm5ldyAwIDAgMzEuMSAzMi42NDsiIHhtbDpzcGFjZT0icHJlc2VydmUiPiYjeGE7PHNvZGlwb2RpOm5hbWVkdmlldyBib3JkZXJjb2xvcj0iIzY2NjY2NiIgYm9yZGVyb3BhY2l0eT0iMSIgZml0LW1hcmdpbi1ib3R0b209IjAiIGZpdC1tYXJnaW4tbGVmdD0iMCIgZml0LW1hcmdpbi1yaWdodD0iMCIgZml0LW1hcmdpbi10b3A9IjAiIGdyaWR0b2xlcmFuY2U9IjEwIiBndWlkZXRvbGVyYW5jZT0iMTAiIGlkPSJuYW1lZHZpZXc5Njc1NiIgaW5rc2NhcGU6Y3VycmVudC1sYXllcj0ic3ZnOTY3NTQiIGlua3NjYXBlOmN4PSIyMC43MzI1MjciIGlua3NjYXBlOmN5PSItMS40Njk5NDMiIGlua3NjYXBlOnBhZ2VvcGFjaXR5PSIwIiBpbmtzY2FwZTpwYWdlc2hhZG93PSIyIiBpbmtzY2FwZTp3aW5kb3ctaGVpZ2h0PSIxMDE3IiBpbmtzY2FwZTp3aW5kb3ctbWF4aW1pemVkPSIxIiBpbmtzY2FwZTp3aW5kb3ctd2lkdGg9IjE5MjAiIGlua3NjYXBlOndpbmRvdy14PSItOCIgaW5rc2NhcGU6d2luZG93LXk9Ii04IiBpbmtzY2FwZTp6b29tPSI5LjQyNjIxNzkiIG9iamVjdHRvbGVyYW5jZT0iMTAiIHBhZ2Vjb2xvcj0iI2ZmZmZmZiIgc2hvd2dyaWQ9ImZhbHNlIj4mI3hhOwk8L3NvZGlwb2RpOm5hbWVkdmlldz4mI3hhOzxnIGlkPSJnOTY3NTIiIHRyYW5zZm9ybT0idHJhbnNsYXRlKC0yMC40NTA2LC0wLjc1MDYpIj4mI3hhOwk8dGl0bGUgaWQ9InRpdGxlOTY3MzIiPlBhZ2UtMTwvdGl0bGU+JiN4YTsJPGcgaWQ9Imdyb3VwMzUyMS0xIiB0cmFuc2Zvcm09InRyYW5zbGF0ZSgyMC40NTA2LC0zNS41OTA5KSI+JiN4YTsJCTx0aXRsZSBpZD0idGl0bGU5NjczNCI+QXp1cmUgU1FMIERhdGFiYXNlPC90aXRsZT4mI3hhOwkJPGcgaWQ9InNoYXBlMzUyMi0yIiB0cmFuc2Zvcm09InRyYW5zbGF0ZSg5Ljg1OTUsLTE1LjcyMzgpIj4mI3hhOwkJCTx0aXRsZSBpZD0idGl0bGU5NjczNiI+U2hlZXQuMzUyMjwvdGl0bGU+JiN4YTsJCQk8cGF0aCBpZD0icGF0aDk2NzM4IiBpbmtzY2FwZTpjb25uZWN0b3ItY3VydmF0dXJlPSIwIiBzdHlsZT0iZmlsbDojM0Y1NzY1OyIgZD0iTTAuMzIsNjguNjRjMC4xLDAuMTIsMC4yMSwwLjIsMC4zNCwwLjI2ICAgICBjMC4xMywwLjA2LDAuMjcsMC4wOCwwLjQyLDAuMDhjMC4xNCwwLDAuMjctMC4wMiwwLjM5LTAuMDhjMC4xMy0wLjA2LDAuMjQtMC4xNSwwLjM0LTAuMjdjMC4xLTAuMTIsMC4xOC0wLjI3LDAuMjQtMC40NiAgICAgYzAuMDUtMC4xOSwwLjA5LTAuNCwwLjA5LTAuNjZjMC0wLjIxLTAuMDItMC40MS0wLjA3LTAuNTljLTAuMDQtMC4xOS0wLjEtMC4zNi0wLjE5LTAuNWMtMC4wNy0wLjE0LTAuMTktMC4yNS0wLjMyLTAuMzQgICAgIGMtMC4xMi0wLjA3LTAuMjgtMC4xMi0wLjQ2LTAuMTJjLTAuMTksMC0wLjM2LDAuMDUtMC41LDAuMTJjLTAuMTQsMC4wOS0wLjI1LDAuMTktMC4zNSwwLjMzYy0wLjA4LDAuMTQtMC4xNSwwLjMtMC4xOSwwLjQ5ICAgICBDMC4wMiw2Ny4wOCwwLDY3LjI3LDAsNjcuNDhjMCwwLjI3LDAuMDMsMC41LDAuMDksMC42OVMwLjIzLDY4LjUyLDAuMzIsNjguNjR6Ii8+JiN4YTsJCTwvZz4mI3hhOwkJPGcgaWQ9InNoYXBlMzUyMy00IiB0cmFuc2Zvcm09InRyYW5zbGF0ZSgwLC0zLjgzODUpIj4mI3hhOwkJCTx0aXRsZSBpZD0idGl0bGU5Njc0MSI+U2hlZXQuMzUyMzwvdGl0bGU+JiN4YTsJCQk8cGF0aCBpZD0icGF0aDk2NzQzIiBpbmtzY2FwZTpjb25uZWN0b3ItY3VydmF0dXJlPSIwIiBzdHlsZT0iZmlsbDojM0Y1NzY1OyIgZD0iTTE0LjUzLDYyLjY2YzAuMjUsMCwwLjUsMC4wMiwwLjc1LDAuMDUgICAgIGMxLjItMi40MSwzLjYzLTMuOTksNi4zNi00LjExVjQ0LjU3YzAtMi4yNS00Ljg1LTQuMzktMTAuODMtNC4zOUM0Ljg0LDQwLjE4LDAsNDIuMjIsMCw0NC40NlY2NC43YzAsMi4wMiwzLjk3LDMuOTQsOS4xNSw0LjI4ICAgICBjLTAuMDQtMC4yOC0wLjA3LTAuNTctMC4wNy0wLjg2QzkuMDgsNjUuMTEsMTEuNTIsNjIuNjYsMTQuNTMsNjIuNjZ6IE0xOC40Miw1OC40OWgtMy43NXYtNS44aDEuNzV2NC40M2gyVjU4LjQ5eiBNMTAuODEsNDEuNzMgICAgIGM0LjI2LDAsNy43MSwxLjA1LDcuNzEsMi4zNnMtMy40NSwyLjM2LTcuNzEsMi4zNlMzLjEsNDUuNCwzLjEsNDQuMDlTNi41NSw0MS43MywxMC44MSw0MS43M3ogTTcuNTcsNTcuMTUgICAgIGMtMC4wMywwLjE0LTAuMDgsMC4yOC0wLjE2LDAuNDJjLTAuMDcsMC4xNC0wLjE3LDAuMjctMC4yOSwwLjM5QzcsNTguMDgsNi44NCw1OC4yLDYuNjUsNTguMjljLTAuMTgsMC4xLTAuNDEsMC4xNy0wLjY2LDAuMjIgICAgIEM1LjczLDU4LjU3LDUuNDMsNTguNiw1LjEsNTguNmMtMC4xOSwwLTAuMzYtMC4wMS0wLjUyLTAuMDRjLTAuMTctMC4wMi0wLjMyLTAuMDMtMC40Ni0wLjA3Yy0wLjE0LTAuMDItMC4yNy0wLjA2LTAuMzktMC4wOSAgICAgYy0wLjEyLTAuMDQtMC4yMS0wLjA4LTAuMy0wLjEyVjU2LjdjMC4xLDAuMDYsMC4yMSwwLjE0LDAuMzQsMC4yMWMwLjEyLDAuMDcsMC4yNiwwLjEzLDAuNCwwLjE5YzAuMTQsMC4wNSwwLjI4LDAuMSwwLjQ0LDAuMTMgICAgIGMwLjE1LDAuMDUsMC4yOSwwLjA2LDAuNDQsMC4wNmMwLjEyLDAsMC4yMy0wLjAxLDAuMzEtMC4wNGMwLjA3LTAuMDIsMC4xMy0wLjA1LDAuMTgtMC4wOWMwLjA0LTAuMDQsMC4wOC0wLjA4LDAuMDktMC4xMyAgICAgYzAuMDItMC4wNSwwLjAzLTAuMDksMC4wMy0wLjE0YzAtMC4wOS0wLjAzLTAuMTctMC4wNy0wLjI0Yy0wLjA0LTAuMDYtMC4xLTAuMTItMC4xOC0wLjE3Yy0wLjA5LTAuMDUtMC4xOC0wLjExLTAuMjktMC4xNSAgICAgYy0wLjExLTAuMDUtMC4yNC0wLjA5LTAuMzctMC4xNWMtMC4yNS0wLjA5LTAuNDctMC4yLTAuNjUtMC4zM2MtMC4xOC0wLjEzLTAuMzItMC4yNi0wLjQ0LTAuNDFjLTAuMTEtMC4xNS0wLjE5LTAuMzEtMC4yNC0wLjQ4ICAgICBjLTAuMDUtMC4xNi0wLjA4LTAuMzQtMC4wOC0wLjUyYzAtMC4yOSwwLjA2LTAuNTQsMC4xNy0wLjc3YzAuMTItMC4yMywwLjI4LTAuNDIsMC40OC0wLjU4YzAuMjEtMC4xNiwwLjQ2LTAuMjksMC43NS0wLjM3ICAgICBjMC4yOC0wLjA5LDAuNjEtMC4xMywwLjk2LTAuMTNjMC4yLDAsMC4zNywwLjAxLDAuNTQsMC4wMmMwLjE2LDAuMDIsMC4zMSwwLjAzLDAuNDQsMC4wNmMwLjEzLDAuMDIsMC4yNCwwLjA0LDAuMzUsMC4wNyAgICAgYzAuMSwwLjAzLDAuMiwwLjA1LDAuMjgsMC4wOHYxLjQ3Yy0wLjA5LTAuMDQtMC4xOC0wLjA5LTAuMjktMC4xNGMtMC4xLTAuMDUtMC4yMi0wLjA5LTAuMzQtMC4xMyAgICAgYy0wLjEyLTAuMDQtMC4yNS0wLjA3LTAuMzktMC4wOWMtMC4xNC0wLjAzLTAuMjgtMC4wNC0wLjQyLTAuMDRjLTAuMiwwLTAuMzUsMC4wNC0wLjQ3LDAuMTFjLTAuMTMsMC4wOC0wLjE5LDAuMTctMC4xOSwwLjMgICAgIGMwLDAuMDYsMC4wMiwwLjEyLDAuMDUsMC4xOGMwLjAyLDAuMDUsMC4wNywwLjA5LDAuMTIsMC4xM2MwLjA2LDAuMDUsMC4xNCwwLjEsMC4yMywwLjE0YzAuMSwwLjA2LDAuMjEsMC4xMSwwLjM1LDAuMTYgICAgIGMwLjI0LDAuMDksMC40NiwwLjIsMC42NywwLjMxYzAuMiwwLjExLDAuMzcsMC4yNCwwLjUyLDAuMzljMC4xNSwwLjE0LDAuMjYsMC4zMSwwLjM0LDAuNDljMC4wOCwwLjE4LDAuMTMsMC40LDAuMTMsMC42NCAgICAgQzcuNjIsNTYuODcsNy42LDU3LjAxLDcuNTcsNTcuMTV6IE04LjIxLDU2Ljg1QzguMDcsNTYuNSw4LDU2LjEsOCw1NS42N2MwLTAuNDYsMC4wNy0wLjg4LDAuMjItMS4yNSAgICAgYzAuMTUtMC4zOCwwLjM1LTAuNywwLjYyLTAuOTdjMC4yNi0wLjI4LDAuNTctMC40OSwwLjkzLTAuNjNjMC4zNy0wLjE1LDAuNzgtMC4yMywxLjIxLTAuMjNjMC40MSwwLDAuOCwwLjA3LDEuMTUsMC4yMSAgICAgYzAuMzUsMC4xNCwwLjY1LDAuMzQsMC45MSwwLjZjMC4yNSwwLjI1LDAuNDUsMC41NiwwLjU5LDAuOTNzMC4yMSwwLjc5LDAuMjEsMS4yNWMwLDAuMzMtMC4wMywwLjY0LTAuMTIsMC45MiAgICAgYy0wLjA4LDAuMjktMC4xOSwwLjU1LTAuMzQsMC43OGMtMC4xNCwwLjIzLTAuMzEsMC40My0wLjUsMC42Yy0wLjIsMC4xOC0wLjQxLDAuMzItMC42NCwwLjQybDEuOTUsMS42N2gtMi4yMmwtMS4yOC0xLjM3ICAgICBjLTAuMzctMC4wMy0wLjcyLTAuMTItMS4wNC0wLjI2Yy0wLjMzLTAuMTQtMC42Mi0wLjMzLTAuODYtMC41OUM4LjU1LDU3LjUsOC4zNiw1Ny4yMSw4LjIxLDU2Ljg1eiIvPiYjeGE7CQk8L2c+JiN4YTsJCTxnIGlkPSJzaGFwZTM1MjQtNiIgdHJhbnNmb3JtPSJ0cmFuc2xhdGUoOS44MjgpIj4mI3hhOwkJCTx0aXRsZSBpZD0idGl0bGU5Njc0NiI+U2hlZXQuMzUyNDwvdGl0bGU+JiN4YTsJCQk8cGF0aCBpZD0icGF0aDk2NzQ4IiBpbmtzY2FwZTpjb25uZWN0b3ItY3VydmF0dXJlPSIwIiBzdHlsZT0iZmlsbDojM0Y1NzY1OyIgZD0iTTIxLjI3LDY2LjIzYzAtMS40NS0xLjEzLTIuNjUtMi41Ni0yLjc0ICAgICBjMC4wOC0wLjQzLDAuMTItMC44NiwwLjEyLTEuMjljMC0zLjctMy4wMS02LjcxLTYuNzEtNi43MWMtMi43NiwwLTUuMjIsMS42OS02LjIzLDQuMjRjLTAuMzktMC4xLTAuNzktMC4xNi0xLjE5LTAuMTYgICAgIGMtMi41OSwwLTQuNywyLjExLTQuNyw0LjcxYzAsMi41NSwyLjA0LDQuNjQsNC42Myw0LjdoMTQuMDloMC41MmgtMC4wMkMyMC40LDY4LjY3LDIxLjI3LDY3LjQ5LDIxLjI3LDY2LjIzeiBNMTguNjgsNjguMjIgICAgIEw0LjcsNjguMjNjLTIuMTgsMC0zLjk1LTEuNzctMy45NS0zLjk1czEuNzctMy45NiwzLjk1LTMuOTZjMC40NCwwLDAuODcsMC4wOCwxLjMsMC4yMmwwLjM1LDAuMTNsMC4xMi0wLjM2ICAgICBjMC44Mi0yLjQzLDMuMDktNC4wNyw1LjY1LTQuMDdjMy4yOSwwLDUuOTYsMi42OCw1Ljk2LDUuOTZjMCwwLjUzLTAuMDcsMS4wNi0wLjIxLDEuNThsLTAuMTUsMC41NGwwLjU2LTAuMDcgICAgIGMwLjA4LTAuMDEsMC4xNi0wLjAyLDAuMjQtMC4wMmMxLjExLDAsMiwwLjksMiwyQzIwLjUyLDY3LjI3LDE5LjcxLDY4LjE0LDE4LjY4LDY4LjIyeiIvPiYjeGE7CQk8L2c+JiN4YTsJPC9nPiYjeGE7PC9nPiYjeGE7PC9zdmc+;" parent="1" vertex="1">
          <mxGeometry x="709.29" y="70" width="73.71" height="78.43" as="geometry" />
        </mxCell>
        <mxCell id="dsxIWtOCX4jfOc43en6E-3" value="SQL Server" style="text;html=1;align=center;verticalAlign=middle;resizable=0;points=[];autosize=1;strokeColor=none;fillColor=none;" parent="1" vertex="1">
          <mxGeometry x="783" y="308" width="90" height="30" as="geometry" />
        </mxCell>
        <mxCell id="dsxIWtOCX4jfOc43en6E-5" value="Azure SQL Shadow Database " style="shape=image;verticalLabelPosition=bottom;labelBackgroundColor=#ffffff;verticalAlign=top;aspect=fixed;imageAspect=0;image=data:image/svg+xml,PHN2ZyB4bWxuczpjYz0iaHR0cDovL2NyZWF0aXZlY29tbW9ucy5vcmcvbnMjIiB4bWxuczpkYz0iaHR0cDovL3B1cmwub3JnL2RjL2VsZW1lbnRzLzEuMS8iIHhtbG5zOmlua3NjYXBlPSJodHRwOi8vd3d3Lmlua3NjYXBlLm9yZy9uYW1lc3BhY2VzL2lua3NjYXBlIiB4bWxuczpyZGY9Imh0dHA6Ly93d3cudzMub3JnLzE5OTkvMDIvMjItcmRmLXN5bnRheC1ucyMiIHhtbG5zOnNvZGlwb2RpPSJodHRwOi8vc29kaXBvZGkuc291cmNlZm9yZ2UubmV0L0RURC9zb2RpcG9kaS0wLmR0ZCIgeG1sbnM6c3ZnPSJodHRwOi8vd3d3LnczLm9yZy8yMDAwL3N2ZyIgeG1sbnM9Imh0dHA6Ly93d3cudzMub3JnLzIwMDAvc3ZnIiB4bWxuczp4bGluaz0iaHR0cDovL3d3dy53My5vcmcvMTk5OS94bGluayIgdmVyc2lvbj0iMS4xIiBpZD0ic3ZnOTY3NTQiIGlua3NjYXBlOnZlcnNpb249IjAuOTIuMyAoMjQwNTU0NiwgMjAxOC0wMy0xMSkiIHNvZGlwb2RpOmRvY25hbWU9ImF6dXJlX3NxbF9kYXRhYmFzZS5zdmciIHg9IjBweCIgeT0iMHB4IiB2aWV3Qm94PSIwIDAgMzEuMSAzMi42NCIgc3R5bGU9ImVuYWJsZS1iYWNrZ3JvdW5kOm5ldyAwIDAgMzEuMSAzMi42NDsiIHhtbDpzcGFjZT0icHJlc2VydmUiPiYjeGE7PHNvZGlwb2RpOm5hbWVkdmlldyBib3JkZXJjb2xvcj0iIzY2NjY2NiIgYm9yZGVyb3BhY2l0eT0iMSIgZml0LW1hcmdpbi1ib3R0b209IjAiIGZpdC1tYXJnaW4tbGVmdD0iMCIgZml0LW1hcmdpbi1yaWdodD0iMCIgZml0LW1hcmdpbi10b3A9IjAiIGdyaWR0b2xlcmFuY2U9IjEwIiBndWlkZXRvbGVyYW5jZT0iMTAiIGlkPSJuYW1lZHZpZXc5Njc1NiIgaW5rc2NhcGU6Y3VycmVudC1sYXllcj0ic3ZnOTY3NTQiIGlua3NjYXBlOmN4PSIyMC43MzI1MjciIGlua3NjYXBlOmN5PSItMS40Njk5NDMiIGlua3NjYXBlOnBhZ2VvcGFjaXR5PSIwIiBpbmtzY2FwZTpwYWdlc2hhZG93PSIyIiBpbmtzY2FwZTp3aW5kb3ctaGVpZ2h0PSIxMDE3IiBpbmtzY2FwZTp3aW5kb3ctbWF4aW1pemVkPSIxIiBpbmtzY2FwZTp3aW5kb3ctd2lkdGg9IjE5MjAiIGlua3NjYXBlOndpbmRvdy14PSItOCIgaW5rc2NhcGU6d2luZG93LXk9Ii04IiBpbmtzY2FwZTp6b29tPSI5LjQyNjIxNzkiIG9iamVjdHRvbGVyYW5jZT0iMTAiIHBhZ2Vjb2xvcj0iI2ZmZmZmZiIgc2hvd2dyaWQ9ImZhbHNlIj4mI3hhOwk8L3NvZGlwb2RpOm5hbWVkdmlldz4mI3hhOzxnIGlkPSJnOTY3NTIiIHRyYW5zZm9ybT0idHJhbnNsYXRlKC0yMC40NTA2LC0wLjc1MDYpIj4mI3hhOwk8dGl0bGUgaWQ9InRpdGxlOTY3MzIiPlBhZ2UtMTwvdGl0bGU+JiN4YTsJPGcgaWQ9Imdyb3VwMzUyMS0xIiB0cmFuc2Zvcm09InRyYW5zbGF0ZSgyMC40NTA2LC0zNS41OTA5KSI+JiN4YTsJCTx0aXRsZSBpZD0idGl0bGU5NjczNCI+QXp1cmUgU1FMIERhdGFiYXNlPC90aXRsZT4mI3hhOwkJPGcgaWQ9InNoYXBlMzUyMi0yIiB0cmFuc2Zvcm09InRyYW5zbGF0ZSg5Ljg1OTUsLTE1LjcyMzgpIj4mI3hhOwkJCTx0aXRsZSBpZD0idGl0bGU5NjczNiI+U2hlZXQuMzUyMjwvdGl0bGU+JiN4YTsJCQk8cGF0aCBpZD0icGF0aDk2NzM4IiBpbmtzY2FwZTpjb25uZWN0b3ItY3VydmF0dXJlPSIwIiBzdHlsZT0iZmlsbDojM0Y1NzY1OyIgZD0iTTAuMzIsNjguNjRjMC4xLDAuMTIsMC4yMSwwLjIsMC4zNCwwLjI2ICAgICBjMC4xMywwLjA2LDAuMjcsMC4wOCwwLjQyLDAuMDhjMC4xNCwwLDAuMjctMC4wMiwwLjM5LTAuMDhjMC4xMy0wLjA2LDAuMjQtMC4xNSwwLjM0LTAuMjdjMC4xLTAuMTIsMC4xOC0wLjI3LDAuMjQtMC40NiAgICAgYzAuMDUtMC4xOSwwLjA5LTAuNCwwLjA5LTAuNjZjMC0wLjIxLTAuMDItMC40MS0wLjA3LTAuNTljLTAuMDQtMC4xOS0wLjEtMC4zNi0wLjE5LTAuNWMtMC4wNy0wLjE0LTAuMTktMC4yNS0wLjMyLTAuMzQgICAgIGMtMC4xMi0wLjA3LTAuMjgtMC4xMi0wLjQ2LTAuMTJjLTAuMTksMC0wLjM2LDAuMDUtMC41LDAuMTJjLTAuMTQsMC4wOS0wLjI1LDAuMTktMC4zNSwwLjMzYy0wLjA4LDAuMTQtMC4xNSwwLjMtMC4xOSwwLjQ5ICAgICBDMC4wMiw2Ny4wOCwwLDY3LjI3LDAsNjcuNDhjMCwwLjI3LDAuMDMsMC41LDAuMDksMC42OVMwLjIzLDY4LjUyLDAuMzIsNjguNjR6Ii8+JiN4YTsJCTwvZz4mI3hhOwkJPGcgaWQ9InNoYXBlMzUyMy00IiB0cmFuc2Zvcm09InRyYW5zbGF0ZSgwLC0zLjgzODUpIj4mI3hhOwkJCTx0aXRsZSBpZD0idGl0bGU5Njc0MSI+U2hlZXQuMzUyMzwvdGl0bGU+JiN4YTsJCQk8cGF0aCBpZD0icGF0aDk2NzQzIiBpbmtzY2FwZTpjb25uZWN0b3ItY3VydmF0dXJlPSIwIiBzdHlsZT0iZmlsbDojM0Y1NzY1OyIgZD0iTTE0LjUzLDYyLjY2YzAuMjUsMCwwLjUsMC4wMiwwLjc1LDAuMDUgICAgIGMxLjItMi40MSwzLjYzLTMuOTksNi4zNi00LjExVjQ0LjU3YzAtMi4yNS00Ljg1LTQuMzktMTAuODMtNC4zOUM0Ljg0LDQwLjE4LDAsNDIuMjIsMCw0NC40NlY2NC43YzAsMi4wMiwzLjk3LDMuOTQsOS4xNSw0LjI4ICAgICBjLTAuMDQtMC4yOC0wLjA3LTAuNTctMC4wNy0wLjg2QzkuMDgsNjUuMTEsMTEuNTIsNjIuNjYsMTQuNTMsNjIuNjZ6IE0xOC40Miw1OC40OWgtMy43NXYtNS44aDEuNzV2NC40M2gyVjU4LjQ5eiBNMTAuODEsNDEuNzMgICAgIGM0LjI2LDAsNy43MSwxLjA1LDcuNzEsMi4zNnMtMy40NSwyLjM2LTcuNzEsMi4zNlMzLjEsNDUuNCwzLjEsNDQuMDlTNi41NSw0MS43MywxMC44MSw0MS43M3ogTTcuNTcsNTcuMTUgICAgIGMtMC4wMywwLjE0LTAuMDgsMC4yOC0wLjE2LDAuNDJjLTAuMDcsMC4xNC0wLjE3LDAuMjctMC4yOSwwLjM5QzcsNTguMDgsNi44NCw1OC4yLDYuNjUsNTguMjljLTAuMTgsMC4xLTAuNDEsMC4xNy0wLjY2LDAuMjIgICAgIEM1LjczLDU4LjU3LDUuNDMsNTguNiw1LjEsNTguNmMtMC4xOSwwLTAuMzYtMC4wMS0wLjUyLTAuMDRjLTAuMTctMC4wMi0wLjMyLTAuMDMtMC40Ni0wLjA3Yy0wLjE0LTAuMDItMC4yNy0wLjA2LTAuMzktMC4wOSAgICAgYy0wLjEyLTAuMDQtMC4yMS0wLjA4LTAuMy0wLjEyVjU2LjdjMC4xLDAuMDYsMC4yMSwwLjE0LDAuMzQsMC4yMWMwLjEyLDAuMDcsMC4yNiwwLjEzLDAuNCwwLjE5YzAuMTQsMC4wNSwwLjI4LDAuMSwwLjQ0LDAuMTMgICAgIGMwLjE1LDAuMDUsMC4yOSwwLjA2LDAuNDQsMC4wNmMwLjEyLDAsMC4yMy0wLjAxLDAuMzEtMC4wNGMwLjA3LTAuMDIsMC4xMy0wLjA1LDAuMTgtMC4wOWMwLjA0LTAuMDQsMC4wOC0wLjA4LDAuMDktMC4xMyAgICAgYzAuMDItMC4wNSwwLjAzLTAuMDksMC4wMy0wLjE0YzAtMC4wOS0wLjAzLTAuMTctMC4wNy0wLjI0Yy0wLjA0LTAuMDYtMC4xLTAuMTItMC4xOC0wLjE3Yy0wLjA5LTAuMDUtMC4xOC0wLjExLTAuMjktMC4xNSAgICAgYy0wLjExLTAuMDUtMC4yNC0wLjA5LTAuMzctMC4xNWMtMC4yNS0wLjA5LTAuNDctMC4yLTAuNjUtMC4zM2MtMC4xOC0wLjEzLTAuMzItMC4yNi0wLjQ0LTAuNDFjLTAuMTEtMC4xNS0wLjE5LTAuMzEtMC4yNC0wLjQ4ICAgICBjLTAuMDUtMC4xNi0wLjA4LTAuMzQtMC4wOC0wLjUyYzAtMC4yOSwwLjA2LTAuNTQsMC4xNy0wLjc3YzAuMTItMC4yMywwLjI4LTAuNDIsMC40OC0wLjU4YzAuMjEtMC4xNiwwLjQ2LTAuMjksMC43NS0wLjM3ICAgICBjMC4yOC0wLjA5LDAuNjEtMC4xMywwLjk2LTAuMTNjMC4yLDAsMC4zNywwLjAxLDAuNTQsMC4wMmMwLjE2LDAuMDIsMC4zMSwwLjAzLDAuNDQsMC4wNmMwLjEzLDAuMDIsMC4yNCwwLjA0LDAuMzUsMC4wNyAgICAgYzAuMSwwLjAzLDAuMiwwLjA1LDAuMjgsMC4wOHYxLjQ3Yy0wLjA5LTAuMDQtMC4xOC0wLjA5LTAuMjktMC4xNGMtMC4xLTAuMDUtMC4yMi0wLjA5LTAuMzQtMC4xMyAgICAgYy0wLjEyLTAuMDQtMC4yNS0wLjA3LTAuMzktMC4wOWMtMC4xNC0wLjAzLTAuMjgtMC4wNC0wLjQyLTAuMDRjLTAuMiwwLTAuMzUsMC4wNC0wLjQ3LDAuMTFjLTAuMTMsMC4wOC0wLjE5LDAuMTctMC4xOSwwLjMgICAgIGMwLDAuMDYsMC4wMiwwLjEyLDAuMDUsMC4xOGMwLjAyLDAuMDUsMC4wNywwLjA5LDAuMTIsMC4xM2MwLjA2LDAuMDUsMC4xNCwwLjEsMC4yMywwLjE0YzAuMSwwLjA2LDAuMjEsMC4xMSwwLjM1LDAuMTYgICAgIGMwLjI0LDAuMDksMC40NiwwLjIsMC42NywwLjMxYzAuMiwwLjExLDAuMzcsMC4yNCwwLjUyLDAuMzljMC4xNSwwLjE0LDAuMjYsMC4zMSwwLjM0LDAuNDljMC4wOCwwLjE4LDAuMTMsMC40LDAuMTMsMC42NCAgICAgQzcuNjIsNTYuODcsNy42LDU3LjAxLDcuNTcsNTcuMTV6IE04LjIxLDU2Ljg1QzguMDcsNTYuNSw4LDU2LjEsOCw1NS42N2MwLTAuNDYsMC4wNy0wLjg4LDAuMjItMS4yNSAgICAgYzAuMTUtMC4zOCwwLjM1LTAuNywwLjYyLTAuOTdjMC4yNi0wLjI4LDAuNTctMC40OSwwLjkzLTAuNjNjMC4zNy0wLjE1LDAuNzgtMC4yMywxLjIxLTAuMjNjMC40MSwwLDAuOCwwLjA3LDEuMTUsMC4yMSAgICAgYzAuMzUsMC4xNCwwLjY1LDAuMzQsMC45MSwwLjZjMC4yNSwwLjI1LDAuNDUsMC41NiwwLjU5LDAuOTNzMC4yMSwwLjc5LDAuMjEsMS4yNWMwLDAuMzMtMC4wMywwLjY0LTAuMTIsMC45MiAgICAgYy0wLjA4LDAuMjktMC4xOSwwLjU1LTAuMzQsMC43OGMtMC4xNCwwLjIzLTAuMzEsMC40My0wLjUsMC42Yy0wLjIsMC4xOC0wLjQxLDAuMzItMC42NCwwLjQybDEuOTUsMS42N2gtMi4yMmwtMS4yOC0xLjM3ICAgICBjLTAuMzctMC4wMy0wLjcyLTAuMTItMS4wNC0wLjI2Yy0wLjMzLTAuMTQtMC42Mi0wLjMzLTAuODYtMC41OUM4LjU1LDU3LjUsOC4zNiw1Ny4yMSw4LjIxLDU2Ljg1eiIvPiYjeGE7CQk8L2c+JiN4YTsJCTxnIGlkPSJzaGFwZTM1MjQtNiIgdHJhbnNmb3JtPSJ0cmFuc2xhdGUoOS44MjgpIj4mI3hhOwkJCTx0aXRsZSBpZD0idGl0bGU5Njc0NiI+U2hlZXQuMzUyNDwvdGl0bGU+JiN4YTsJCQk8cGF0aCBpZD0icGF0aDk2NzQ4IiBpbmtzY2FwZTpjb25uZWN0b3ItY3VydmF0dXJlPSIwIiBzdHlsZT0iZmlsbDojM0Y1NzY1OyIgZD0iTTIxLjI3LDY2LjIzYzAtMS40NS0xLjEzLTIuNjUtMi41Ni0yLjc0ICAgICBjMC4wOC0wLjQzLDAuMTItMC44NiwwLjEyLTEuMjljMC0zLjctMy4wMS02LjcxLTYuNzEtNi43MWMtMi43NiwwLTUuMjIsMS42OS02LjIzLDQuMjRjLTAuMzktMC4xLTAuNzktMC4xNi0xLjE5LTAuMTYgICAgIGMtMi41OSwwLTQuNywyLjExLTQuNyw0LjcxYzAsMi41NSwyLjA0LDQuNjQsNC42Myw0LjdoMTQuMDloMC41MmgtMC4wMkMyMC40LDY4LjY3LDIxLjI3LDY3LjQ5LDIxLjI3LDY2LjIzeiBNMTguNjgsNjguMjIgICAgIEw0LjcsNjguMjNjLTIuMTgsMC0zLjk1LTEuNzctMy45NS0zLjk1czEuNzctMy45NiwzLjk1LTMuOTZjMC40NCwwLDAuODcsMC4wOCwxLjMsMC4yMmwwLjM1LDAuMTNsMC4xMi0wLjM2ICAgICBjMC44Mi0yLjQzLDMuMDktNC4wNyw1LjY1LTQuMDdjMy4yOSwwLDUuOTYsMi42OCw1Ljk2LDUuOTZjMCwwLjUzLTAuMDcsMS4wNi0wLjIxLDEuNThsLTAuMTUsMC41NGwwLjU2LTAuMDcgICAgIGMwLjA4LTAuMDEsMC4xNi0wLjAyLDAuMjQtMC4wMmMxLjExLDAsMiwwLjksMiwyQzIwLjUyLDY3LjI3LDE5LjcxLDY4LjE0LDE4LjY4LDY4LjIyeiIvPiYjeGE7CQk8L2c+JiN4YTsJPC9nPiYjeGE7PC9nPiYjeGE7PC9zdmc+;" parent="1" vertex="1">
          <mxGeometry x="880.55" y="70" width="73.71" height="78.43" as="geometry" />
        </mxCell>
        <mxCell id="dsxIWtOCX4jfOc43en6E-11" style="edgeStyle=orthogonalEdgeStyle;rounded=0;orthogonalLoop=1;jettySize=auto;html=1;" parent="1" source="dsxIWtOCX4jfOc43en6E-8" target="SZY12_XKgGBlkoAp8IEY-8" edge="1">
          <mxGeometry relative="1" as="geometry" />
        </mxCell>
        <mxCell id="dsxIWtOCX4jfOc43en6E-8" value="" style="image;aspect=fixed;html=1;points=[];align=center;fontSize=12;image=img/lib/azure2/storage/Storage_Accounts.svg;" parent="1" vertex="1">
          <mxGeometry x="783" y="630" width="90" height="72" as="geometry" />
        </mxCell>
        <mxCell id="dsxIWtOCX4jfOc43en6E-10" value="Storage Account" style="text;html=1;align=center;verticalAlign=middle;resizable=0;points=[];autosize=1;strokeColor=none;fillColor=none;" parent="1" vertex="1">
          <mxGeometry x="773" y="710" width="110" height="30" as="geometry" />
        </mxCell>
      </root>
    </mxGraphModel>
  </diagram>
</mxfile>
